<svg width="1000" height="538" viewBox="0 0 1000 538" fill="none" xmlns="http://www.w3.org/2000/svg">
<path d="M545.562 0C563.724 0 577.153 7.15998 582.088 9.97177C588.933 13.8721 594.794 18.5034 599.584 23.0751C605.01 28.2545 612.564 36.7371 618.339 48.376C618.675 48.3709 619.011 48.3676 619.348 48.3676H641.536L643.3 48.3913C661.506 48.8785 678.732 56.8892 690.843 70.5624L697.72 78.3269L698.423 79.1343C700.472 81.525 702.542 84.0432 704.594 86.6923C710.271 83.1943 717.395 79.9384 726.021 78.0899C742.481 74.5627 756.005 78.078 762.05 80.067C763.63 74.4884 765.94 69.1311 768.933 64.1403C786.71 34.4954 816.6 31.4778 825.864 31.2272C834.949 30.9815 842.686 32.5477 846.726 33.5056L848.224 33.8712L849.58 34.2267C866.347 38.8021 880.385 46.8496 890.947 56.0779C897.113 53.8541 914.371 48.5823 935.14 55.5091L935.137 55.5193C942.381 57.945 947.355 60.9519 947.448 61.0054C949.896 62.3928 952.091 63.8201 953.982 65.1474C957.773 67.8094 961.997 71.2346 966.193 75.4899C973.609 83.011 986.45 98.7628 989.571 122.449H989.574C989.589 122.561 989.602 122.674 989.617 122.786C989.625 122.852 989.634 122.918 989.642 122.984H989.64C991.011 133.825 990.049 144.051 987.479 153.37C989.914 157.183 992.373 161.668 994.421 166.751C1000.36 181.493 1000.4 194.601 999.692 203.024L999.209 209.29C996.571 243.608 967.956 270.108 933.537 270.108H922.337C921.464 270.108 917.261 270.161 913.159 269.983C911.963 273.173 910.524 276.256 908.861 279.208C914.811 286.632 920.999 296.961 923.792 310.105C926.892 314.149 930.253 319.312 933.051 325.563C937.104 334.614 943.881 355.112 934.905 378.861C934.878 378.933 934.851 379.006 934.824 379.078C934.742 379.292 934.661 379.507 934.577 379.721C934.454 380.035 934.329 380.347 934.202 380.656C934.181 380.708 934.16 380.762 934.138 380.815L934.135 380.813C927.269 397.524 915.497 407.167 911.84 410.026C915.758 416.333 919.204 424.167 920.896 433.595C927.206 468.755 904.844 490.738 900.069 495.186C893.91 500.924 887.576 504.687 885.307 506.018C871.936 513.999 858.595 516.109 852.79 516.9C844.889 517.978 836.796 518.233 829.183 518.111C798.502 517.848 769.075 510.821 743.994 495.051C741.638 498.895 738.447 503.276 734.242 507.486C724.856 516.882 715.007 521.096 711.469 522.535C706.815 524.429 702.754 525.508 700.226 526.107C695.112 527.319 690.428 527.917 687.383 528.24C680.97 528.921 674.415 529.139 669.396 529.139C666.822 529.139 664.248 528.988 661.691 528.687C659.487 528.427 654.213 527.794 648.493 526.278C647.926 526.128 647.196 525.924 646.33 525.667C644.703 525.62 642.725 525.572 640.351 525.537C635.752 525.603 632.257 525.684 629.692 525.772C626.335 526.587 623.916 526.924 622.967 527.065C617.256 527.917 611.99 528.077 608.083 528.077C606.837 528.077 600.317 528.327 591.782 526.982C591.068 527.373 590.347 527.755 589.619 528.12C581.598 532.134 573.905 533.903 572.008 534.352C568.294 535.231 564.29 535.967 560.284 536.483C556.58 536.961 550.988 537.503 544.662 537.289C541.515 537.183 536.617 536.845 530.907 535.601C526.105 534.555 515.169 531.735 504.038 523.378C503.49 522.967 502.947 522.546 502.412 522.117C500.323 520.445 498.397 518.721 496.616 516.961C495.864 517.575 495.095 518.182 494.302 518.776C482.7 527.462 470.552 530.983 460.764 532.204C460.731 532.211 460.697 532.218 460.663 532.225C459.181 532.514 451.622 534.103 442.544 533.912C434.257 533.738 422.322 532.077 409.988 525.506C403.413 526.446 396.7 527.402 389.78 528.382C363.682 542.367 336.603 537.799 319.262 530.547C317.893 529.975 316.543 529.355 315.216 528.692C313.886 528.026 312.554 527.36 311.667 526.916C306.067 524.116 300.985 520.582 296.514 516.465C287.907 514.124 279.541 510.214 271.942 504.65C268.995 507.395 265.84 510.116 262.515 512.687C257.318 516.707 245.085 525.704 228.463 529.636C226.597 530.078 224.71 530.438 222.813 530.715C211.266 532.4 201.339 530.735 198.798 530.325C194.192 529.582 189.704 528.522 185.695 527.356C182.108 526.313 176.469 524.487 170.508 521.554C167.898 520.269 161.952 517.207 155.677 511.9C155.017 511.343 152.746 509.483 149.85 506.363C127.151 508.499 98.8043 503.604 75.9921 484.317C75.797 484.152 75.6012 483.985 75.4081 483.818C55.9092 466.939 42.4056 441.87 43.9948 411.597L44.1369 409.386C45.335 393.436 50.3117 379.59 57.3401 367.667C51.9001 359.972 45.5731 347.701 44.9613 331.264C44.4805 318.344 47.6342 307.393 52.1282 298.581C50.7742 297.158 49.4335 295.646 48.1334 294.031C32.2067 274.249 28.8956 249.539 35.2197 228.022C36.9086 222.169 39.1738 216.654 41.889 211.525C42.5067 203.4 43.5055 191.974 44.5567 180.76C42.9558 180.046 41.4126 179.303 39.9322 178.539C34.7498 175.863 26.3537 170.907 18.5821 162.638C15.362 159.211 6.81366 149.616 2.51484 134.384C0.129661 125.933 -1.51576 113.598 2.13398 99.5349C4.98083 88.5659 10.3678 79.2232 17.0569 71.7863C17.0915 71.7476 17.1256 71.708 17.1602 71.6695C17.2579 71.5613 17.3565 71.4535 17.4547 71.3462C32.8238 54.4315 51.7009 50.9698 55.3292 50.2651C61.4578 49.0747 67.0831 48.8552 68.3766 48.7925C70.5749 48.6857 83.552 47.984 107.962 45.859L107.986 45.8573C120.401 44.7812 130.869 43.9132 138.766 43.391C142.671 43.1328 146.588 42.914 150.101 42.8239C151.266 42.7941 156.655 42.5824 163.035 43.2657C163.481 43.2698 164.093 43.2733 164.912 43.2725C166.747 43.2708 168.848 43.2539 171.732 43.2353C174.503 43.2174 177.739 43.2001 181.353 43.2048H181.506C187.728 43.2274 192.296 43.1599 197.241 43.1337C199.503 43.1217 202.058 43.1184 204.521 43.1676C206.603 43.2092 209.73 43.3077 213.195 43.6381C225.603 44.7488 238.352 48.3972 249.554 54.1279C255.305 57.0698 263.138 61.8217 270.603 69.232C273.403 72.0107 276.87 75.8972 280.206 80.8948C280.53 80.3154 280.902 79.6402 281.316 78.8533C282.043 77.4758 282.787 76.0154 283.774 74.068C284.687 72.2691 285.867 69.9369 287.111 67.5714C289.604 62.8265 293.089 56.5074 297.687 49.8775L298.393 48.8805C298.631 48.5501 298.873 48.2213 299.117 47.8953C313.089 29.2661 335.42 17.3338 360.019 17.3334C365.506 17.3334 370.973 18.0196 376.289 19.3748C382.284 20.9028 387.75 22.7585 392.983 25.0471C394.168 25.5654 395.32 26.1018 396.382 26.6145C413.073 4.87156 441.87 -4.50963 468.578 3.98803L470.504 4.60249C477.927 6.13473 486.231 7.09918 495.643 7.09924H513.902C522.052 3.28277 532.71 0.000212688 545.562 0ZM561.349 468.111C561.104 468.389 560.86 468.638 560.617 468.849L560.861 468.626C561.023 468.47 561.186 468.298 561.349 468.113V468.111ZM212.885 465.577C212.901 465.576 212.917 465.578 212.933 465.577L213.3 465.538C213.172 465.557 213.033 465.568 212.885 465.577ZM211.57 465.571C211.593 465.572 211.615 465.571 211.638 465.572C211.447 465.561 211.248 465.547 211.043 465.528L211.57 465.571ZM437.312 461.985C437.416 462.291 437.524 462.596 437.635 462.901C437.718 463.151 437.807 463.389 437.897 463.617C437.807 463.39 437.72 463.151 437.637 462.901C437.526 462.596 437.417 462.291 437.312 461.985ZM377.732 463.566L385.498 448.923H385.494L377.732 463.566ZM197.837 461.203C197.866 461.248 197.903 461.291 197.942 461.337C197.875 461.257 197.82 461.182 197.783 461.105L197.837 461.203ZM594.504 456.9C594.742 457.193 594.971 457.469 595.191 457.73L594.506 456.9C594.386 456.748 594.267 456.593 594.152 456.435C594.267 456.593 594.385 456.748 594.504 456.9ZM624.842 452.44H624.844V422.918H624.842V452.44ZM376.376 449.104C376.491 449.156 376.608 449.206 376.728 449.253H376.73C376.59 449.198 376.454 449.138 376.322 449.075C376.34 449.084 376.357 449.095 376.376 449.104ZM828.87 444.423C829.238 444.428 829.592 444.427 829.931 444.422C829.253 444.433 828.514 444.423 827.724 444.391L828.87 444.423ZM832.516 444.256C832.046 444.314 831.505 444.363 830.901 444.391L831.775 444.335C832.038 444.313 832.286 444.285 832.516 444.256ZM835.533 443.625C834.947 443.787 834.35 443.927 833.74 444.038C833.59 444.077 833.422 444.112 833.237 444.146C833.423 444.111 833.592 444.077 833.742 444.038C834.351 443.927 834.947 443.787 835.533 443.625ZM814.771 442.181C815.005 442.251 815.239 442.319 815.472 442.385C814.974 442.243 814.472 442.091 813.969 441.93L814.771 442.181ZM449.074 437.615C449.627 438.961 450.136 440.329 450.615 441.712H450.616C450.298 440.79 449.965 439.874 449.614 438.968C449.439 438.515 449.259 438.064 449.074 437.615ZM146.035 440.498C145.225 440.622 144.414 440.722 143.602 440.798C143.707 440.788 143.812 440.781 143.917 440.771C144.215 440.741 144.513 440.707 144.811 440.671C145.219 440.621 145.627 440.561 146.035 440.498ZM131.931 440.197C132.399 440.292 132.87 440.381 133.345 440.459C133.359 440.462 133.374 440.462 133.389 440.464C132.899 440.384 132.413 440.295 131.931 440.197ZM146.26 440.463C146.373 440.445 146.486 440.431 146.599 440.412C146.896 440.362 147.194 440.309 147.491 440.253V440.251C147.081 440.329 146.671 440.397 146.26 440.463ZM131.654 440.143C131.698 440.152 131.743 440.159 131.787 440.168C131.657 440.141 131.528 440.112 131.398 440.083C131.483 440.102 131.568 440.124 131.654 440.143ZM314.942 438.496C314.72 438.884 314.492 439.272 314.257 439.662L314.944 438.496C315.027 438.357 315.106 438.21 315.184 438.057C315.106 438.21 315.025 438.357 314.942 438.496ZM124.781 437.915C124.975 438.003 125.17 438.088 125.367 438.172C125.17 438.088 124.975 438.003 124.781 437.915ZM154.82 438.12C154.99 438.052 155.162 437.986 155.331 437.915C155.411 437.882 155.49 437.844 155.57 437.81C155.321 437.916 155.071 438.019 154.82 438.12ZM123.082 437.086C123.094 437.092 123.107 437.098 123.119 437.104C123.097 437.093 123.075 437.08 123.053 437.069L123.082 437.086ZM774.531 436.185C774.796 436.382 775.066 436.573 775.335 436.767C774.98 436.511 774.629 436.253 774.28 435.992L774.531 436.185ZM160.184 435.459L160.233 435.432C160.319 435.38 160.402 435.324 160.487 435.271C160.386 435.333 160.286 435.397 160.184 435.459ZM367.081 434.724C367.231 434.886 367.374 435.054 367.513 435.227C367.374 435.055 367.232 434.886 367.083 434.724C367.415 434.593 367.74 434.466 368.056 434.345L367.081 434.724ZM118.516 434.018C118.91 434.351 119.317 434.672 119.735 434.982L119.117 434.508C118.915 434.347 118.715 434.184 118.518 434.018C118.322 433.848 118.127 433.677 117.938 433.505L118.516 434.018ZM162.96 433.594C163.067 433.514 163.176 433.437 163.282 433.357C163.33 433.32 163.377 433.28 163.426 433.243C163.272 433.362 163.116 433.478 162.96 433.594ZM164.377 432.478C164.626 432.271 164.873 432.061 165.117 431.847C164.873 432.061 164.626 432.271 164.377 432.478ZM434.407 430.328C433.722 430.643 433.035 431.024 432.352 431.471V431.473C433.035 431.025 433.722 430.645 434.407 430.33V430.328ZM166.633 430.421C166.681 430.374 166.73 430.329 166.777 430.281C166.851 430.206 166.921 430.128 166.994 430.052C166.874 430.176 166.755 430.3 166.633 430.421ZM167.207 429.831C167.281 429.753 167.356 429.678 167.429 429.6C167.498 429.526 167.565 429.45 167.634 429.375C167.493 429.529 167.35 429.68 167.207 429.831ZM169.706 426.855C169.565 427.047 169.421 427.239 169.274 427.429C168.79 428.052 168.286 428.653 167.764 429.231C168.286 428.652 168.79 428.052 169.274 427.429C169.568 427.048 169.851 426.663 170.122 426.274L169.706 426.855ZM530.739 427.359C530.082 427.43 529.423 427.48 528.767 427.513C528.905 427.507 529.043 427.503 529.18 427.495C529.7 427.463 530.22 427.415 530.739 427.359ZM530.883 427.344C530.956 427.336 531.029 427.331 531.102 427.322C531.195 427.311 531.289 427.295 531.383 427.283C531.216 427.304 531.05 427.325 530.883 427.344ZM533.434 426.953C533.156 427.007 532.877 427.059 532.596 427.105C532.732 427.083 532.869 427.064 533.004 427.039C533.148 427.013 533.291 426.981 533.434 426.953ZM534.611 426.696C534.692 426.676 534.775 426.66 534.856 426.64C534.9 426.629 534.944 426.614 534.988 426.603C534.863 426.635 534.737 426.665 534.611 426.696ZM545.165 423.7L545.163 423.63C545.16 423.595 545.154 423.562 545.151 423.53C545.156 423.582 545.161 423.639 545.165 423.7ZM544.892 423.09C544.985 423.089 545.044 423.103 545.072 423.129C545.086 423.144 545.099 423.176 545.11 423.224C545.099 423.176 545.088 423.144 545.073 423.129C545.046 423.102 544.986 423.089 544.892 423.09ZM624.842 418.032H624.844V412.761H624.842V418.032ZM666.001 418.032H666.002L665.858 415.026L665.857 415.024L666.001 418.032ZM376.621 416.753C376.912 416.794 377.193 416.827 377.461 416.851H377.463C377.194 416.827 376.914 416.794 376.623 416.753C376.304 416.711 375.983 416.675 375.661 416.641L376.621 416.753ZM314.753 408.734L314.754 408.736C314.59 408.527 314.431 408.315 314.279 408.1H314.277C314.429 408.314 314.589 408.526 314.753 408.734ZM240.525 393.187H240.527H240.525ZM131.84 382.479C131.143 383.002 130.462 383.525 129.798 384.049L131.369 382.832C131.525 382.714 131.682 382.597 131.84 382.479ZM132.998 381.617C132.899 381.689 132.802 381.762 132.705 381.834C132.939 381.661 133.176 381.488 133.414 381.316C133.275 381.417 133.136 381.516 132.998 381.617ZM142.04 375.588C140.082 376.786 138.214 377.989 136.435 379.196H136.437C138.216 377.989 140.084 376.786 142.042 375.588H142.04ZM149.747 367.955C149.702 368.227 149.624 368.509 149.51 368.798L149.656 368.37C149.695 368.23 149.726 368.091 149.749 367.955C149.756 367.912 149.759 367.867 149.766 367.82C149.758 367.867 149.754 367.912 149.747 367.955ZM849.122 351.14H849.123C849.145 351.104 849.162 351.066 849.183 351.03C849.162 351.066 849.143 351.104 849.122 351.14ZM849.714 349.967C849.699 350.002 849.682 350.035 849.667 350.07C849.682 350.035 849.701 350.002 849.716 349.967C850.007 349.426 850.287 348.914 850.559 348.431C850.287 348.914 850.005 349.426 849.714 349.967ZM854.84 342.625C854.617 342.799 854.396 342.996 854.173 343.216L854.508 342.903C854.619 342.805 854.729 342.712 854.84 342.625ZM856.901 341.662C856.879 341.666 856.857 341.671 856.835 341.676C856.977 341.648 857.121 341.625 857.267 341.611L856.901 341.662ZM852.326 334.485C851.266 335.196 850.141 335.869 848.963 336.494C849.062 336.442 849.163 336.392 849.262 336.339C850.333 335.759 851.357 335.138 852.328 334.487L852.326 334.485ZM853.772 333.415L854.455 332.848C854.508 332.804 854.558 332.756 854.609 332.711C854.34 332.943 854.063 333.179 853.772 333.415ZM859.08 327.093C859.084 327.083 859.09 327.073 859.093 327.063C859.102 327.038 859.107 327.013 859.115 326.988C859.104 327.023 859.092 327.058 859.08 327.093ZM859.227 326.626C859.233 326.604 859.243 326.582 859.249 326.56C859.257 326.53 859.26 326.5 859.268 326.47C859.255 326.522 859.241 326.574 859.227 326.626ZM147.619 324.984C146.252 325.107 144.929 325.224 143.646 325.334L147.621 324.984C147.705 323.375 147.789 321.845 147.873 320.397L147.619 324.984ZM103.235 237.797C103.158 237.904 103.08 238.009 103.001 238.111C102.868 238.264 102.738 238.421 102.61 238.578C102.739 238.42 102.87 238.265 103.003 238.111C103.131 237.945 103.254 237.771 103.377 237.591C103.329 237.66 103.283 237.73 103.235 237.797ZM103.748 237.009C103.843 236.849 103.938 236.685 104.03 236.516C103.938 236.685 103.843 236.849 103.748 237.009ZM106.485 228.574C106.547 228.207 106.608 227.832 106.664 227.448C106.608 227.832 106.547 228.207 106.485 228.574ZM107.312 219.983C107.29 220.535 107.266 221.076 107.236 221.607C107.267 221.076 107.292 220.535 107.314 219.983C107.39 218.89 107.476 217.705 107.571 216.444L107.312 219.983ZM901.638 194.252C902.231 194.907 902.786 195.519 903.307 196.091C903.465 196.264 903.621 196.432 903.773 196.598C903.12 195.885 902.413 195.105 901.64 194.252C901.35 193.948 901.059 193.647 900.768 193.35C901.059 193.647 901.349 193.948 901.638 194.252ZM934.074 194.439C934.125 194.969 934.143 195.516 934.133 196.091L934.135 196.092C934.145 195.518 934.127 194.97 934.075 194.439H934.074ZM83.3893 123.108C83.6952 123.115 84.0445 123.117 84.4354 123.119C84.0449 123.117 83.6967 123.115 83.3909 123.108C83.063 123.111 82.7365 123.108 82.4126 123.099L83.3893 123.108ZM150.003 108.73C148.727 108.781 147.281 108.857 145.664 108.953L147.963 108.825C148.685 108.787 149.365 108.755 150.003 108.73ZM826.874 97.1431C826.641 97.1855 826.433 97.2461 826.248 97.3242L826.544 97.221C826.648 97.191 826.758 97.1642 826.874 97.1431ZM829.08 97.1499C829.327 97.1794 829.586 97.2169 829.857 97.2616C829.782 97.2491 829.708 97.2356 829.635 97.2244C829.444 97.1948 829.259 97.1696 829.08 97.1482V97.1499ZM473.368 79.0971C473.483 79.12 473.6 79.1388 473.717 79.1614C473.54 79.127 473.364 79.0933 473.19 79.0582C473.25 79.0702 473.309 79.0852 473.368 79.0971ZM453.266 70.9704C453.765 71.3863 454.296 71.7882 454.858 72.1773L454.039 71.5831C453.774 71.3822 453.517 71.1782 453.267 70.9704L448.607 66.7538L453.266 70.9704ZM538.907 68.5295C538.616 68.7511 538.334 68.9591 538.059 69.1541C538.334 68.9589 538.617 68.7513 538.908 68.5295C539.213 68.3076 539.511 68.099 539.804 67.9049C539.511 68.0992 539.212 68.3074 538.907 68.5295ZM368.29 436.32C368.197 436.175 368.104 436.03 368.007 435.889C368.104 436.03 368.197 436.175 368.29 436.32ZM163.605 433.101C163.74 432.995 163.878 432.892 164.011 432.784C164.041 432.761 164.069 432.735 164.098 432.712C163.935 432.844 163.77 432.972 163.605 433.101Z" fill="#31AF48"/>
<g filter="url(#filter0_d_517_407)">
<path d="M838.847 400.109L824.425 396.781C798.91 393.009 786.93 413.199 791.811 424.515C802.238 444.261 828.641 445.37 833.744 444.039C836.184 443.595 838.403 442.708 840.621 441.598C844.837 438.936 845.503 438.492 851.271 441.598C857.04 444.704 858.149 445.592 851.715 449.364C848.609 451.36 841.287 452.47 829.75 452.248C803.792 452.026 784.267 444.926 770.511 432.946C762.302 425.846 761.637 418.302 768.071 408.762C774.727 399 777.611 396.559 786.264 391.678C794.695 386.797 795.804 386.575 809.338 387.906C816.216 388.794 822.206 389.46 827.088 391.013L824.425 384.578C820.21 375.038 819.322 374.373 808.894 376.369C798.467 378.366 786.708 379.476 773.174 379.254C766.296 379.032 761.859 378.366 760.084 376.813C756.756 374.816 756.534 373.041 758.974 372.376C760.971 371.71 766.518 371.045 774.727 370.379C782.936 369.713 790.923 368.826 798.91 367.495C806.676 366.163 811.335 365.276 812.001 363.723C812.444 361.726 809.782 355.514 804.457 345.086H786.486C778.942 345.086 773.618 344.864 770.955 344.42C765.408 343.311 756.534 337.764 761.415 336.655C762.302 336.211 764.965 336.211 768.736 335.99C772.73 335.99 776.058 335.768 778.499 335.324C790.036 335.102 796.47 334.88 798.245 334.436C798.91 333.771 797.357 326.671 792.92 313.359C791.811 309.365 791.589 306.925 792.476 305.594C792.92 304.041 793.808 303.153 795.361 303.375C798.467 303.375 814.219 310.697 818.878 314.912C820.875 317.131 821.985 320.015 821.985 323.565C821.985 330.221 823.76 331.108 829.528 330.443C832.412 329.999 835.297 327.337 838.403 322.234C844.837 311.806 846.612 310.697 854.155 317.131C861.699 323.343 861.033 327.78 853.046 333.993C849.274 336.655 844.615 338.874 839.512 339.983C834.853 340.871 831.747 341.314 830.859 342.202C829.75 343.311 829.528 343.533 829.75 344.42L833.965 360.839C842.618 357.954 847.943 354.183 849.718 349.967C854.377 341.314 856.374 340.205 862.143 342.867C867.689 345.308 874.789 351.964 873.236 355.736C872.57 357.511 869.686 359.507 866.136 361.504L838.847 371.932C837.515 373.485 838.181 378.366 840.621 383.469C850.827 400.997 840.843 400.109 838.847 400.109Z" fill="#6D4C41"/>
<path d="M830.178 427.076C830.332 427.044 830.487 427.013 830.642 426.985C830.821 426.952 831.222 426.853 832.082 426.465C833.906 425.268 838.785 422.347 844.683 422.115C851.589 421.844 857.342 425.182 859.487 426.337C860.727 427.004 862.868 428.147 864.718 429.461C865.687 430.15 871.698 434.198 873.129 442.169C874.861 451.82 868.766 458.02 866.986 459.678C864.768 461.745 862.184 463.317 860.479 464.316L860.478 464.314C855.776 467.143 850.359 468.25 846.235 468.812C841.442 469.466 835.834 469.692 829.601 469.579V469.58C800.523 469.332 776.687 461.311 759.126 446.016V446.015C752.981 440.687 747.51 433.283 746.548 423.457C745.613 413.906 749.306 405.585 753.7 399.071L753.749 398.998C754.833 397.408 755.899 395.895 756.97 394.446C754.863 393.759 752.473 392.711 750.202 391.072C748.804 390.165 747.261 389.005 745.812 387.533C744.205 385.902 741.468 382.64 740.415 377.727C739.135 371.753 740.871 365.663 744.947 361.274C748.003 357.982 751.538 356.52 753.791 355.835C753.832 355.822 753.873 355.808 753.915 355.795C753.286 355.396 752.684 354.993 752.119 354.584C750.985 353.765 749.6 352.656 748.264 351.251C747.14 350.069 744.912 347.513 743.63 343.687C742.071 339.034 741.972 332.134 746.802 326.257C749.949 322.427 753.826 320.811 756.245 320.099C757.916 319.549 759.262 319.339 759.797 319.257C760.959 319.081 762.069 318.996 762.84 318.944C763.655 318.89 764.537 318.847 765.293 318.811C766.102 318.772 766.882 318.734 767.717 318.685C768.056 318.665 768.396 318.657 768.736 318.657C772.269 318.656 774.424 318.446 775.397 318.269L776.084 318.159C776.143 318.151 776.201 318.144 776.26 318.137C776.247 318.09 776.231 318.045 776.218 317.998C775.56 315.629 774.852 312.666 774.652 309.606C774.499 307.255 774.51 303.069 776.538 298.684C777.521 296.206 779.281 293.076 782.482 290.439C786.845 286.846 791.948 285.741 796.43 286.072C796.448 286.073 796.465 286.074 796.483 286.075C796.655 286.088 796.827 286.1 796.997 286.117C799.218 286.303 801.027 286.803 801.786 287.018C803.169 287.409 804.562 287.894 805.828 288.374C808.388 289.343 811.26 290.602 814.04 291.937C818.592 294.123 825.216 297.609 829.65 301.315L830.506 302.058L831.15 302.671C831.179 302.7 831.206 302.733 831.236 302.764C833.251 300.729 836.155 298.409 840.072 297.02C846.798 294.637 852.843 296.163 856.921 298.122C860.418 299.802 863.388 302.225 865.402 303.942H865.4C869.835 307.633 877.671 315.318 876.697 327.002C876.582 328.377 876.348 329.687 876.023 330.932C878.606 332.739 881.009 334.815 883.031 336.985C884.919 339.011 887.171 341.854 888.756 345.395C890.209 348.641 892.113 354.864 889.462 361.819L889.464 361.821C887.332 367.505 883.046 370.945 881.408 372.219C879.158 373.969 876.683 375.458 874.632 376.612C873.89 377.029 873.117 377.391 872.321 377.695L859.564 382.57C860.626 385.098 861.445 387.617 861.937 390.121C862.963 395.342 862.879 402.461 858.199 408.731C853.734 414.713 847.612 416.466 844.476 417.032C841.45 417.578 838.251 417.442 838.845 417.442C837.533 417.441 836.226 417.293 834.948 416.998L821.283 413.845C814.148 412.946 810.765 415.339 809.407 416.798C808.879 417.366 808.545 417.903 808.342 418.328C810.82 421.662 814.75 424.067 819.783 425.587C822.659 426.455 825.457 426.884 827.664 427.032C829.334 427.145 830.134 427.068 830.178 427.076ZM795.359 303.375C793.806 303.153 792.918 304.041 792.475 305.594C791.588 306.925 791.809 309.366 792.918 313.358C797.355 326.67 798.909 333.77 798.243 334.436C796.468 334.88 790.034 335.101 778.498 335.323C776.057 335.767 772.729 335.99 768.736 335.99C764.964 336.212 762.301 336.211 761.413 336.655C756.533 337.765 765.407 343.31 770.953 344.42C773.616 344.863 778.941 345.085 786.484 345.085H804.456C809.78 355.513 812.444 361.726 812 363.723C811.334 365.276 806.673 366.164 798.909 367.495C790.921 368.826 782.934 369.713 774.725 370.379C766.516 371.045 760.969 371.709 758.972 372.375C756.532 373.04 756.755 374.816 760.083 376.813C761.858 378.366 766.295 379.032 773.173 379.254L775.69 379.279C788.171 379.333 799.118 378.242 808.894 376.37C819.321 374.373 820.209 375.038 824.424 384.578L827.085 391.012C822.205 389.459 816.215 388.793 809.337 387.905C795.803 386.574 794.693 386.797 786.262 391.678C777.61 396.559 774.725 398.999 768.069 408.761C761.635 418.302 762.301 425.845 770.51 432.945C784.266 444.926 803.79 452.025 829.748 452.247C841.285 452.469 848.606 451.359 851.713 449.363C857.745 445.827 857.148 444.826 852.297 442.155L851.269 441.598C845.501 438.492 844.836 438.936 840.62 441.598C838.402 442.707 836.183 443.595 833.743 444.039C828.64 445.37 802.237 444.26 791.809 424.514C786.929 413.198 798.91 393.009 824.424 396.78L838.845 400.108C840.841 400.108 850.826 400.996 840.62 383.469C838.18 378.366 837.514 373.484 838.845 371.931L866.135 361.504C869.684 359.507 872.568 357.51 873.234 355.735C874.787 351.964 867.688 345.308 862.142 342.867C856.373 340.205 854.376 341.314 849.717 349.967C847.942 354.182 842.617 357.955 833.965 360.839L829.748 344.42C829.526 343.533 829.749 343.311 830.858 342.202C831.746 341.315 834.852 340.87 839.512 339.983C844.614 338.874 849.273 336.655 853.045 333.992C861.032 327.78 861.697 323.342 854.154 317.13C846.611 310.696 844.835 311.806 838.401 322.233C835.295 327.336 832.411 329.999 829.526 330.443C824.118 331.067 822.22 330.325 822.004 324.745L821.984 323.564C821.983 320.236 821.008 317.493 819.241 315.335L818.877 314.912C814.218 310.697 798.465 303.375 795.359 303.375Z" fill="#FFFDE5"/>
<path d="M650.093 312.26H656.457C663.034 312.26 667.065 314.384 669.187 317.57C670.248 319.057 671.096 321.818 671.733 325.429C672.369 329.252 673.006 331.163 673.642 331.163C674.278 331.163 675.551 330.314 677.461 328.402C681.068 324.579 682.553 324.367 690.19 325.429C697.616 326.703 700.162 331.163 697.191 334.987C695.494 336.898 688.705 337.748 676.612 337.535C672.581 337.748 672.369 338.172 673.642 341.996C674.703 345.819 673.006 357.713 671.945 360.899C671.096 363.872 669.611 366.208 667.065 369.394C664.519 372.368 663.034 373.642 660.488 373.642C657.73 373.855 649.668 373.005 648.395 371.306C647.759 370.456 647.971 368.97 649.032 366.208C650.305 363.66 650.729 358.35 650.941 350.067V337.748H616.36L617.421 350.491C618.057 359.199 619.118 364.934 620.815 367.908C623.997 373.855 621.664 375.554 613.39 374.492C605.752 373.005 603.843 371.731 601.721 367.058C601.085 364.509 599.812 359.624 598.327 352.828C596.629 346.031 595.356 341.783 594.508 340.084C593.447 338.385 591.325 337.535 587.931 336.898C581.142 335.624 581.778 333.075 588.567 332.863H595.356V325.854C595.356 320.756 595.993 317.358 596.841 314.597C598.751 309.712 598.963 309.712 605.752 310.986C612.541 312.048 617.421 315.446 618.057 317.995C618.269 319.057 618.269 321.606 617.845 324.792L616.996 332.863H651.153L650.093 312.26ZM563.109 322.243C563.957 325.004 564.382 329.677 564.382 336.261C564.382 343.058 564.594 347.518 564.806 349.642C565.442 354.102 566.503 354.952 569.049 354.314C570.322 353.465 571.807 352.403 573.716 350.491C577.535 346.668 578.808 346.243 585.385 347.943C601.297 351.978 591.325 360.686 579.02 360.686L569.049 361.111C568.413 361.111 566.291 362.598 566.079 362.81L564.594 366.633V377.89C564.806 388.085 565.018 394.669 565.654 398.068C566.503 401.678 567.776 403.377 569.898 403.377C574.565 403.377 579.02 404.652 579.02 406.563C579.02 407.625 576.899 409.112 572.443 411.661L566.079 414.634V458.387C565.654 461.149 562.684 467.52 560.138 469.22C557.593 470.494 546.136 472.618 543.59 470.706C542.529 469.857 541.893 467.733 542.742 464.547C543.802 458.175 545.712 423.767 545.075 423.13C544.863 422.918 542.529 423.555 538.286 425.466C529.8 429.289 515.161 427.378 515.798 423.767C516.222 422.918 517.283 422.068 518.768 421.643L545.5 411.873L546.348 362.385H533.407C521.314 362.385 513.888 361.111 511.555 358.775C511.13 358.35 511.13 357.713 511.342 357.288C511.979 356.226 517.919 355.589 529.164 355.589H546.136V350.491C546.136 347.943 545.712 341.783 544.651 332.013C542.529 312.473 540.832 310.349 558.017 316.721C560.563 317.57 562.472 319.482 563.109 322.243ZM587.294 406.563V382.775H617.845C639.061 383.2 653.275 384.05 660.913 384.687C668.338 385.324 673.218 385.961 674.703 386.174C678.309 386.386 683.826 388.085 684.886 388.722C686.159 389.359 689.129 391.908 689.342 393.607C689.554 394.457 689.766 395.944 690.402 398.068C690.827 400.192 691.039 402.103 691.039 403.802L691.463 415.909C692.312 428.865 689.554 459.025 687.644 460.936C685.947 462.635 676.188 463.273 669.399 463.273C665.792 462.848 664.095 462.423 663.883 461.786C663.883 460.511 656.245 459.874 640.333 459.662C624.634 459.874 616.36 460.299 615.723 461.149C614.875 461.786 612.541 462.211 608.086 462.211C599.387 462.211 598.327 461.573 594.508 456.901C590.689 452.016 588.78 444.369 587.931 431.201C587.507 424.617 587.294 416.333 587.294 406.563ZM653.063 388.51H646.062V398.068C645.85 404.439 646.062 409.112 646.698 412.298C647.971 418.67 648.395 418.033 657.094 418.033H666.004L665.368 404.652C664.519 387.023 662.398 388.722 653.063 388.51ZM614.663 418.033H624.846V401.678C624.634 388.297 624.846 388.51 616.36 389.572H615.511C611.48 390.421 609.359 400.404 610.419 408.05C611.268 411.873 611.48 414.21 611.692 414.847C611.905 416.546 613.602 418.033 614.663 418.033ZM617.421 452.44H624.846V422.918H611.48L614.875 448.617C615.299 450.529 616.36 452.44 617.421 452.44ZM647.759 453.927H665.58V422.918H647.759V453.927Z" fill="#6D4C41"/>
<path d="M593.088 294.365C597.644 292.562 601.801 292.905 603.53 293.082C605.342 293.268 607.35 293.651 608.773 293.918C614.103 294.795 619.064 296.607 623.191 299.106C625.293 300.379 627.488 302.017 629.441 304.091C630.541 305.261 631.902 306.93 633.055 309.093C633.662 305.827 635.198 302.774 637.525 300.323C640.797 296.878 645.34 294.927 650.092 294.927H656.458C666.587 294.927 676.928 298.333 683.296 307.502L683.347 307.578C687.048 307.444 690.433 307.962 692.577 308.261C692.759 308.286 692.941 308.314 693.122 308.345C699.219 309.392 707.018 312.305 711.915 319.495C714.516 323.315 716.021 328.056 715.691 333.176C715.367 338.193 713.363 342.423 710.879 345.62C710.646 345.92 710.404 346.212 710.152 346.496C706.668 350.42 702.406 352.029 700.308 352.71C697.8 353.523 695.223 353.974 692.936 354.258C692.219 354.347 691.476 354.421 690.71 354.49C690.263 358.241 689.51 362.818 688.509 365.997C687.98 367.782 687.34 369.42 686.622 370.938C687.473 371.189 688.299 371.453 689.066 371.72C689.599 371.906 691.063 372.415 692.643 373.222C692.687 373.244 692.732 373.267 692.775 373.29C692.884 373.346 692.995 373.401 693.105 373.46C695.814 374.904 698.191 376.932 699.774 378.517C700.751 379.495 701.981 380.855 703.116 382.542C703.95 383.782 705.581 386.424 706.313 390.076C706.392 390.427 706.455 390.723 706.489 390.894C706.567 391.272 706.605 391.465 706.662 391.732C706.71 391.953 706.759 392.171 706.814 392.395L707.221 393.876C707.286 394.14 707.347 394.405 707.4 394.672C707.955 397.448 708.321 400.334 708.363 403.245L708.783 415.216C709.248 423.06 708.68 434.652 707.855 444.074C707.425 448.996 706.888 453.766 706.293 457.583C706.003 459.449 705.648 461.408 705.213 463.161C705.002 464.012 704.683 465.176 704.216 466.407C704.011 466.948 702.836 470.253 699.908 473.185C697.282 475.814 694.44 477.068 693.183 477.579C691.632 478.21 690.16 478.617 689.031 478.884C686.757 479.423 684.353 479.756 682.262 479.978C677.994 480.431 673.221 480.606 669.399 480.606C668.721 480.606 668.044 480.567 667.371 480.487C665.462 480.263 663.098 479.938 660.928 479.363C659.952 479.104 658.193 478.584 656.27 477.569C653.069 477.3 647.887 477.1 640.338 476.997C632.644 477.103 627.05 477.258 623.386 477.471C622.576 477.518 621.932 477.565 621.432 477.606C618.971 478.576 616.831 478.91 615.813 479.062C613.391 479.423 610.755 479.544 608.085 479.544C604.354 479.544 598.434 479.597 592.942 477.366C586.636 474.804 582.934 470.139 581.202 468.01C580.579 469.566 579.908 470.99 579.296 472.173C578.444 473.816 577.368 475.659 576.073 477.43C574.953 478.961 572.872 481.561 569.761 483.637C569.163 484.037 568.54 484.397 567.897 484.719C565.317 486.01 562.414 486.749 560.83 487.124C558.768 487.613 556.425 488.046 554.081 488.348C551.817 488.64 549.056 488.876 546.306 488.783C544.936 488.737 543.155 488.596 541.238 488.179C539.561 487.814 536.346 486.942 533.183 484.567C533.038 484.458 532.895 484.348 532.755 484.235C524.27 477.44 524.407 467.295 525.693 461.331C525.706 461.23 525.722 461.112 525.738 460.977C525.792 460.531 525.855 459.962 525.923 459.269C526.059 457.88 526.207 456.14 526.361 454.145C526.576 451.349 526.791 448.154 526.991 444.89C525.193 444.891 523.493 444.807 521.943 444.656C518.659 444.337 514.592 443.609 510.827 441.941C509.025 441.142 506.052 439.593 503.425 436.712C500.468 433.47 497.481 427.832 498.728 420.758L498.848 420.144C499.153 418.715 499.637 417.33 500.29 416.022C503.307 409.982 508.665 406.705 513.18 405.229L528.372 399.677L528.716 379.656C524.029 379.525 519.726 379.179 515.968 378.552C513.477 378.137 510.814 377.532 508.249 376.585C505.88 375.71 502.368 374.105 499.291 371.025C492.42 364.145 493.104 355.011 495.835 349.542L496.145 348.953C496.251 348.759 496.361 348.568 496.475 348.378C499.158 343.901 502.995 341.93 504.261 341.316C505.969 340.487 507.538 340.031 508.542 339.775C510.602 339.252 512.75 338.97 514.578 338.79C518.096 338.444 522.598 338.281 527.873 338.259C527.739 336.914 527.59 335.456 527.419 333.883C526.962 329.676 526.353 324.952 526.133 321.631C526.015 319.858 525.927 317.542 526.173 315.14C526.405 312.88 527.075 308.911 529.694 305.002C536.649 294.621 548.058 296.017 551.386 296.603C555.388 297.307 559.946 298.952 563.902 300.418C570.524 302.749 576.205 307.791 578.945 314.913C579.3 312.991 579.749 311.206 580.272 309.505C580.399 309.094 580.541 308.687 580.697 308.286C581.043 307.4 581.918 305.078 583.165 302.969C584.729 300.324 587.726 296.487 593.088 294.365ZM558.017 316.721C540.832 310.349 542.529 312.473 544.651 332.013C545.712 341.782 546.135 347.941 546.135 350.49V355.589H529.163C517.919 355.589 511.978 356.226 511.342 357.288L511.272 357.456C511.136 357.868 511.184 358.403 511.555 358.774C513.889 361.111 521.314 362.385 533.406 362.385H546.349L545.499 411.873L518.768 421.644C517.283 422.068 516.221 422.917 515.797 423.766C515.16 427.377 529.8 429.289 538.286 425.466C542.529 423.554 544.864 422.917 545.076 423.13C545.711 423.776 543.802 458.176 542.742 464.547C541.893 467.733 542.529 469.857 543.59 470.707C546.135 472.618 557.591 470.493 560.138 469.219C562.683 467.52 565.655 461.148 566.079 458.387V414.634L572.444 411.66C576.619 409.271 578.744 407.816 578.994 406.768L579.02 406.563C579.02 404.771 575.105 403.54 570.769 403.393L569.898 403.377C567.776 403.377 566.503 401.678 565.654 398.067C565.018 394.669 564.805 388.085 564.593 377.89V366.634L566.079 362.81C566.292 362.597 568.411 361.112 569.048 361.11L579.02 360.686C591.325 360.686 601.296 351.978 585.384 347.943C578.808 346.244 577.535 346.668 573.716 350.49C571.807 352.402 570.321 353.465 569.048 354.314C566.503 354.951 565.442 354.101 564.806 349.642C564.594 347.518 564.381 343.058 564.381 336.261C564.381 329.677 563.957 325.003 563.108 322.242C562.512 319.654 560.797 317.812 558.487 316.892L558.017 316.721ZM665.58 422.918V453.927H647.759V422.918H665.58ZM624.847 422.918V452.441H617.421C616.36 452.441 615.299 450.528 614.875 448.617L611.479 422.918H624.847ZM653.062 388.51C662.397 388.723 664.52 387.023 665.368 404.652L666.005 418.033H657.094C648.396 418.033 647.971 418.67 646.698 412.298C646.061 409.112 645.849 404.439 646.061 398.067V388.51H653.062ZM616.359 389.572C624.846 388.51 624.634 388.297 624.847 401.678V418.033H614.663C613.603 418.033 611.905 416.546 611.692 414.847C611.48 414.21 611.268 411.872 610.42 408.049C609.359 400.403 611.48 390.421 615.511 389.572H616.359ZM569.048 378.444C569.282 378.444 569.51 378.437 569.728 378.429C569.502 378.437 569.275 378.444 569.048 378.444ZM605.751 310.986C598.963 309.712 598.75 309.712 596.841 314.596C595.992 317.357 595.356 320.756 595.356 325.853V332.862H588.567C581.778 333.075 581.142 335.624 587.93 336.898C591.325 337.535 593.447 338.384 594.508 340.084C595.357 341.783 596.63 346.031 598.327 352.828C599.812 359.624 601.084 364.51 601.721 367.059C603.842 371.731 605.753 373.005 613.39 374.491C621.664 375.553 623.997 373.854 620.815 367.907C619.117 364.933 618.057 359.198 617.421 350.49L616.359 337.748H650.941V350.065C650.729 358.349 650.305 363.66 649.032 366.209L648.673 367.186C647.931 369.331 647.839 370.562 648.396 371.306C649.669 373.005 657.73 373.854 660.488 373.642C663.034 373.642 664.519 372.368 667.064 369.395C669.61 366.209 671.096 363.872 671.945 360.899C672.972 357.813 674.597 346.554 673.734 342.377L673.642 341.995C672.37 338.172 672.581 337.747 676.611 337.534C688.326 337.74 695.064 336.95 697.017 335.163L697.191 334.987C700.069 331.283 697.769 326.981 690.872 325.557L690.19 325.428C682.553 324.366 681.068 324.579 677.461 328.402C675.552 330.313 674.279 331.162 673.642 331.163C673.006 331.163 672.369 329.251 671.733 325.428C671.097 321.818 670.248 319.057 669.187 317.57C667.066 314.385 663.034 312.261 656.458 312.26H650.092L651.153 332.862H616.996L617.845 324.792C618.27 321.606 618.269 319.058 618.057 317.995C617.421 315.447 612.54 312.048 605.751 310.986ZM587.304 410.157C587.35 418.377 587.559 425.439 587.93 431.201C588.779 444.369 590.689 452.016 594.508 456.901L595.194 457.73C598.489 461.651 599.931 462.211 608.085 462.211C612.54 462.211 614.874 461.785 615.723 461.148C616.36 460.299 624.634 459.874 640.333 459.662C656.245 459.874 663.882 460.512 663.882 461.786C664.095 462.423 665.793 462.848 669.399 463.272C675.976 463.272 685.34 462.674 687.462 461.092L687.644 460.936C689.554 459.025 692.312 428.865 691.463 415.909L691.038 403.802C691.038 402.316 690.876 400.666 690.551 398.855L690.402 398.067C689.765 395.943 689.553 394.457 689.341 393.607C689.128 391.908 686.158 389.359 684.885 388.722C683.823 388.085 678.308 386.385 674.702 386.173C673.216 385.96 668.337 385.324 660.913 384.687C653.276 384.049 639.061 383.2 617.845 382.775H587.294V406.563L587.304 410.157Z" fill="#FFFDE5"/>
<path d="M467.148 370.604C441.633 378.148 434.311 358.623 422.774 343.98C413.678 361.951 402.362 376.151 379.732 370.382C385.5 362.395 391.935 354.852 397.038 346.421C401.031 339.987 403.25 332.443 405.912 325.343C407.687 320.906 408.353 316.025 414.787 315.581C421.665 315.137 427.211 315.803 430.096 322.681C430.761 324.678 432.093 326.453 432.536 328.228C436.53 346.864 447.845 359.511 464.485 368.164C465.151 368.386 465.595 369.051 467.148 370.604ZM376.182 348.196C365.532 365.945 355.105 383.251 343.789 401.888L361.539 400.334C359.764 395.675 358.211 391.016 356.436 386.357C366.642 383.916 369.082 385.248 372.632 393.678C375.295 399.669 378.179 405.437 380.841 411.206C383.06 415.865 381.285 417.418 376.626 416.753C371.523 416.087 365.976 416.753 365.754 408.987C365.754 407.878 362.648 405.881 361.095 406.103C351.998 407.212 342.236 405.659 334.693 413.868C330.255 418.749 319.162 414.978 314.281 408.1C321.825 396.341 329.368 384.582 336.69 372.823C336.468 371.935 336.024 371.048 335.802 370.382C332.252 371.27 328.481 372.823 324.931 372.601C318.94 372.157 312.95 370.604 306.959 369.051C306.516 369.051 306.516 364.836 307.403 363.283C316.722 349.527 326.04 335.993 336.246 321.35C342.014 323.568 348.005 325.787 355.77 328.893L330.477 365.723C333.584 366.611 336.024 367.054 339.352 367.942C342.902 361.508 346.452 355.074 349.78 348.639C354.661 339.765 356.658 338.877 365.754 343.093C369.082 344.646 372.188 346.199 376.182 348.196ZM397.038 376.817C407.022 376.817 415.896 377.038 424.771 376.817C428.099 376.595 431.427 374.154 434.755 374.376C440.302 374.598 445.626 376.151 451.173 377.038C450.508 378.813 449.62 382.141 449.176 382.141C432.314 381.476 415.674 380.588 398.812 379.701C398.591 379.701 398.369 378.813 397.038 376.817ZM387.054 399.225C397.925 398.56 408.797 397.894 419.668 397.672C428.099 397.228 436.53 397.672 444.961 397.228C448.289 397.006 451.617 395.01 454.945 395.01C459.826 394.788 464.707 395.897 469.81 396.341C469.366 398.56 469.588 401.888 468.701 402.331C466.26 403.441 463.154 403.219 460.492 403.441C440.967 403.884 421.665 404.55 402.14 404.772C397.038 404.994 391.935 403.441 386.832 402.553C386.832 401.444 387.054 400.334 387.054 399.225ZM425.437 410.097C418.781 425.627 412.346 439.827 406.134 454.026L434.533 449.145C432.758 443.82 431.205 438.718 429.652 433.615C436.752 426.959 444.961 427.846 448.511 436.277C451.617 443.377 453.392 451.142 455.61 458.686C456.72 462.457 456.942 466.673 452.061 466.895C446.958 467.338 440.302 470.888 437.639 462.901C436.752 460.461 436.086 458.02 435.199 455.358C416.562 458.02 398.147 460.682 377.735 463.567L385.5 448.923C370.635 453.361 372.41 440.492 367.085 434.724C377.735 430.508 379.954 431.618 387.941 445.152C391.713 436.277 395.706 428.068 398.812 419.415C403.25 407.212 403.472 406.769 416.34 408.322C418.559 408.544 420.777 409.209 425.437 410.097ZM341.127 410.54C342.68 410.319 343.124 410.097 343.346 410.097C360.208 412.315 360.429 412.315 363.092 428.512C364.423 437.608 364.645 446.927 365.311 456.023C365.976 468.891 356.88 474.882 344.677 469.779C343.346 469.113 342.014 468.448 341.127 468.004V410.54ZM308.291 448.702C310.953 444.708 313.172 441.602 314.947 438.496C316.278 436.277 316.943 432.062 318.275 431.84C322.934 431.174 327.815 431.84 332.474 432.505C333.362 432.505 334.027 434.28 334.471 435.39C335.802 440.936 330.921 449.811 324.487 451.808C318.94 453.361 312.506 455.136 308.291 448.702Z" fill="#6D4C41"/>
<path d="M413.67 298.284C417.436 298.041 423.71 297.804 429.986 300.14C437.202 302.827 442.59 308.137 445.777 315.28L446.079 315.977L446.321 316.583C446.345 316.649 446.366 316.716 446.39 316.781C446.457 316.917 446.549 317.1 446.806 317.599C447.042 318.056 447.487 318.918 447.915 319.888C448.353 320.879 448.92 322.301 449.351 324.023C449.398 324.213 449.443 324.404 449.484 324.595C452.179 337.171 459.421 345.901 472.141 352.603C475.275 354.108 477.199 356.088 477.739 356.628C478.133 357.022 478.578 357.494 478.728 357.652C478.958 357.894 479.164 358.108 479.403 358.348C483.726 362.67 485.451 368.951 483.945 374.875C483.23 377.684 481.838 380.215 479.948 382.286C481.354 383.3 482.616 384.527 483.677 385.942C486.635 389.887 487.772 394.905 486.805 399.74C486.887 399.334 486.881 399.191 486.839 399.669C486.821 399.877 486.806 400.09 486.778 400.442C486.754 400.749 486.72 401.188 486.677 401.644C486.611 402.332 486.438 404.121 485.913 406.057C485.644 407.048 485.099 408.796 483.987 410.719C482.889 412.617 480.614 415.753 476.451 417.835C476.26 417.93 476.067 418.022 475.872 418.111C471.897 419.917 468.121 420.335 466.034 420.499C464.931 420.586 463.873 420.625 463.236 420.65C462.467 420.68 462.153 420.695 461.929 420.714C461.582 420.743 461.233 420.76 460.885 420.768C460.256 420.782 459.627 420.797 458.997 420.812C461.265 423.347 463.068 426.259 464.387 429.328H464.39C464.423 429.402 464.453 429.476 464.485 429.55H464.483C468.121 437.94 470.447 447.707 472.238 453.795C472.934 456.163 474.555 462.14 472.823 468.606C471.802 472.419 469.524 476.7 465.218 479.923C461.309 482.85 457.05 483.913 453.515 484.169C453.447 484.18 453.348 484.201 453.212 484.226C452.643 484.331 452.364 484.394 451.353 484.592C449.944 484.867 446.928 485.46 443.568 485.389C439.923 485.312 434.889 484.452 430.108 480.978C427.518 479.096 425.546 476.839 424.048 474.464C409.936 476.488 395.609 478.546 380.159 480.729C378.015 481.032 375.875 480.924 373.835 480.453C372.527 481.765 371.057 482.984 369.409 484.079C359.3 490.793 347.427 489.717 337.989 485.77C337.629 485.619 337.273 485.457 336.924 485.283C335.593 484.617 334.262 483.951 333.374 483.507C328.049 480.844 324.501 475.66 323.887 469.821C321.301 470.338 318.137 470.745 314.871 470.553C307.007 470.09 299.137 466.362 293.79 458.201C289.983 452.39 290.013 444.867 293.867 439.087C296.822 434.654 298.362 432.518 299.695 430.239C299.932 429.608 299.814 429.871 300.339 428.441C300.601 427.73 301.298 425.815 302.427 423.891C302.689 423.443 303.057 422.858 303.539 422.195C302.315 420.938 301.175 419.583 300.145 418.131C296.053 412.365 295.873 404.69 299.691 398.739C302.207 394.817 304.711 390.905 307.205 387.005C305.826 386.663 304.512 386.321 303.276 386C297.841 384.843 294.514 381.348 293.166 379.603C291.479 377.421 290.716 375.353 290.425 374.51C289.779 372.634 289.573 371.013 289.498 370.359C289.311 368.743 289.31 367.191 289.364 365.978C289.421 364.697 289.566 363.169 289.873 361.569C290.119 360.289 290.724 357.534 292.353 354.683L292.692 354.114C292.808 353.928 292.927 353.743 293.051 353.561C302.419 339.731 311.783 326.132 322.025 311.438L322.463 310.837C327.111 304.738 335.256 302.397 342.468 305.171C348.012 307.304 354.303 309.637 362.206 312.799C367.095 314.754 370.83 318.826 372.358 323.865C372.706 325.015 372.929 326.186 373.033 327.361L373.041 327.366L373.084 327.385C376.661 329.054 379.98 330.715 383.932 332.691C384.135 332.793 384.334 332.901 384.532 333.01C386.068 329.526 387.388 325.37 389.681 319.256C389.725 319.139 389.771 319.022 389.818 318.906C390.33 317.626 390.017 318.284 390.933 315.866C391.481 314.422 392.454 311.996 394.078 309.503C395.815 306.838 398.369 303.966 402.1 301.755C405.812 299.557 409.779 298.552 413.594 298.289L413.67 298.284ZM343.345 410.096C343.123 410.096 342.678 410.317 341.125 410.539V468.003C342.013 468.447 343.344 469.113 344.675 469.779C356.878 474.882 365.975 468.891 365.309 456.022C364.644 446.926 364.421 437.607 363.09 428.511C360.428 412.315 360.206 412.314 343.345 410.096ZM416.339 408.322C403.471 406.769 403.249 407.212 398.811 419.414C395.705 428.067 391.711 436.277 387.939 445.152C379.952 431.618 377.734 430.508 367.085 434.723C372.41 440.491 370.635 453.36 385.5 448.923L377.734 463.567C398.145 460.682 416.561 458.019 435.198 455.357C436.085 458.019 436.751 460.459 437.639 462.9C440.301 470.887 446.956 467.339 452.059 466.895C456.94 466.673 456.718 462.457 455.609 458.685C453.39 451.142 451.615 443.376 448.509 436.277C444.959 427.846 436.751 426.958 429.651 433.614C431.204 438.717 432.758 443.82 434.533 449.145L406.132 454.025C412.345 439.826 418.78 425.626 425.436 410.096C420.777 409.208 418.558 408.544 416.339 408.322ZM332.472 432.505C327.813 431.84 322.933 431.173 318.274 431.839C316.943 432.06 316.277 436.275 314.946 438.494L314.259 439.662C312.609 442.392 310.62 445.207 308.29 448.701C312.506 455.135 318.939 453.36 324.486 451.807C330.92 449.811 335.801 440.935 334.47 435.388C334.026 434.279 333.359 432.505 332.472 432.505ZM336.245 321.348C326.659 335.103 317.857 347.88 309.101 360.78L311.308 352.273C311.484 352.318 311.66 352.361 311.833 352.406C310.69 352.071 309.44 351.839 308.082 351.755C309.17 351.825 310.251 351.998 311.308 352.273L309.101 360.78C308.535 361.614 307.967 362.447 307.401 363.282C306.514 364.835 306.515 369.049 306.958 369.051C312.948 370.604 318.939 372.157 324.929 372.6C328.479 372.822 332.252 371.269 335.802 370.381C336.024 371.047 336.467 371.935 336.689 372.822C329.367 384.581 321.824 396.341 314.281 408.1C319.162 414.977 330.254 418.748 334.691 413.867C342.235 405.658 351.998 407.212 361.094 406.103C362.647 405.881 365.753 407.878 365.753 408.987C365.975 416.752 371.522 416.086 376.625 416.751C381.284 417.417 383.058 415.865 380.84 411.206C378.177 405.438 375.294 399.668 372.632 393.678C369.082 385.247 366.64 383.916 356.434 386.357C358.209 391.016 359.763 395.675 361.538 400.334L343.788 401.888C355.103 383.251 365.532 365.944 376.181 348.195C372.188 346.198 369.081 344.644 365.753 343.091C356.657 338.876 354.659 339.764 349.779 348.638C346.45 355.072 342.901 361.508 339.351 367.942C336.024 367.055 333.582 366.61 330.477 365.723L355.769 328.893C348.004 325.787 342.014 323.567 336.245 321.348ZM454.943 395.008C451.615 395.009 448.288 397.006 444.96 397.228C436.529 397.671 428.098 397.227 419.667 397.671C408.796 397.893 397.924 398.559 387.052 399.225C387.052 400.334 386.83 401.444 386.83 402.553C391.933 403.44 397.036 404.994 402.139 404.772C421.663 404.55 440.966 403.884 460.49 403.44C463.153 403.218 466.26 403.441 468.7 402.331C469.587 401.887 469.365 398.559 469.809 396.341C464.706 395.897 459.824 394.787 454.943 395.008ZM434.754 374.376C431.426 374.154 428.097 376.593 424.769 376.815C415.895 377.037 407.019 376.815 397.036 376.815C398.367 378.812 398.589 379.7 398.811 379.7C415.673 380.587 432.313 381.475 449.175 382.14C449.618 382.14 450.506 378.814 451.172 377.039C445.625 376.151 440.301 374.598 434.754 374.376ZM430.094 322.681C427.21 315.803 421.663 315.138 414.785 315.581C408.352 316.025 407.685 320.906 405.911 325.343L404.929 328.023C402.666 334.311 400.53 340.791 397.036 346.421C391.933 354.851 385.499 362.394 379.731 370.381C402.361 376.15 413.677 361.951 422.773 343.98C434.31 358.623 441.632 378.146 467.146 370.603C465.593 369.05 465.149 368.386 464.483 368.164C448.364 359.781 437.242 347.651 432.931 329.958L432.535 328.228C432.119 326.564 430.923 324.9 430.226 323.053L430.094 322.681ZM307.984 351.748C307.85 351.74 307.715 351.734 307.579 351.729C307.714 351.734 307.849 351.74 307.984 351.748Z" fill="#FFFDE5"/>
<path d="M175.614 320.608C175.269 322.538 176.931 323.356 180.574 323.547C184.46 323.751 187.169 323.163 189.214 321.322C193.509 318.381 208.221 321.102 209.743 324.591C211.52 327.85 206.881 332.721 202.688 333.719C200.733 333.859 196.348 333.873 189.318 333.26C175.245 332.278 175.769 331.575 177.152 346.99L177.894 356.039L186.88 356.511C203.152 357.365 232.745 378.157 240.927 393.929C244.865 402.416 247.731 422.049 245.278 431.661C242.826 441.274 223.413 463.146 213.302 465.538C209.621 466.075 197.619 462.766 197.721 460.823C197.733 460.581 199.267 459.2 202.552 456.937C205.338 454.892 207.472 451.351 208.225 446.276C209.962 436.383 208.667 400.759 206.288 390.406C205.354 385 203.168 380.258 199.499 375.925C195.868 370.864 194.065 368.091 194.091 367.605C194.627 366.659 193.707 365.636 192.493 365.573C191.278 365.509 190.537 365.714 188.786 366.596L178.842 370.457L176.8 395.434C175.703 407.065 174.822 414.568 173.927 417.687C173.263 421.062 171.628 424.385 169.276 427.428C156.739 443.573 131.111 444.663 118.52 434.018C112.23 428.573 109.392 422.336 109.774 415.05C110.475 401.693 121.159 388.373 142.043 375.588C146.811 372.916 149.392 370.129 149.75 367.956C150.108 365.783 150.465 358.983 149.568 348.221L148.659 333.074C125.344 331.85 112.984 330.714 111.322 329.896C109.941 328.363 111.219 327.212 115.169 326.202C116.907 325.563 120.55 325.754 126.379 326.06C132.207 326.366 139.058 325.751 147.622 324.983C148.298 312.112 148.949 304.353 149.805 301.963C151.172 299.112 158.177 300.21 162.574 304.581C171.382 313.08 175.742 318.179 175.614 320.608ZM232.469 323.105C235.268 320.817 237.262 319.948 238.962 320.037C242.362 320.215 255.579 323.588 262.009 330.988C265.001 334.311 266.765 337.813 266.842 340.983C266.242 347.77 259.597 358.38 255.392 359.621C245.998 362.293 232.805 353.808 233.482 345.563C233.354 343.365 232.267 340.872 229.927 339.045C225.261 335.147 227.127 327.452 232.469 323.105ZM152.119 401.687C152.642 391.73 152.667 386.617 151.695 386.566C149.957 387.206 144.116 391.77 133.662 400.718C133.152 410.433 134.674 418.549 137.743 425.042C139.251 428.774 141.373 430.103 143.623 429.004C148.646 426.101 151.316 416.987 152.119 401.687Z" fill="#6D4C41"/>
<path d="M147.551 283.74C151.599 282.727 155.395 282.991 158.254 283.529C163.94 284.597 169.884 287.495 174.605 292.111L174.609 292.108C179.104 296.445 182.989 300.41 185.824 303.852C185.857 303.892 185.888 303.933 185.921 303.974C188.845 303.106 191.473 302.876 193.122 302.791C196.66 302.608 200.25 302.918 203.422 303.457C206.562 303.991 210.031 304.875 213.228 306.223C214.814 306.891 216.8 307.867 218.761 309.286C219.226 309.623 219.795 310.06 220.418 310.605C220.771 310.29 221.131 309.984 221.496 309.686C225.03 306.796 231.396 302.283 239.87 302.728L240.687 302.784C244.875 303.147 250.548 304.642 255.716 306.683C261.241 308.866 269.032 312.765 274.889 319.391L274.891 319.391C274.904 319.405 274.916 319.421 274.929 319.435C274.983 319.496 275.039 319.557 275.093 319.618L275.091 319.618C279.411 324.482 283.955 331.714 284.17 340.561C284.186 341.211 284.164 341.861 284.107 342.509C283.47 349.711 280.155 356.737 277.208 361.5C275.6 364.099 273.635 366.786 271.376 369.141C269.551 371.043 265.77 374.631 260.295 376.246C260.242 376.262 260.189 376.277 260.135 376.292C256.985 377.188 253.846 377.528 250.806 377.451C252.68 379.877 254.347 382.356 255.733 384.863L256.313 385.946L256.65 386.633C259.703 393.214 261.698 402.261 262.698 410.209C263.675 417.978 264.123 427.918 262.074 435.947C260.702 441.322 257.648 446.501 255.033 450.374C252.152 454.639 248.618 459.029 244.907 463.055C241.208 467.067 237.046 471.031 232.823 474.298C229.038 477.225 223.529 480.93 217.293 482.405C216.802 482.521 216.306 482.617 215.806 482.69C212.09 483.232 208.415 482.715 206.537 482.412C204.115 482.021 201.576 481.431 199.251 480.755C197.036 480.111 194.37 479.202 191.94 478.006C190.823 477.456 188.908 476.44 187.016 474.841C186.179 474.133 180.319 469.296 180.386 460.753L180.411 459.915L180.461 459.218C180.78 455.797 182.036 453.381 182.429 452.641C183.031 451.505 183.638 450.663 183.982 450.21C184.684 449.283 185.351 448.591 185.699 448.239C186.463 447.467 187.244 446.791 187.858 446.283C188.766 445.531 189.841 444.709 191.06 443.83C191.065 443.798 191.075 443.765 191.08 443.73L191.153 443.278C191.656 440.413 191.891 430.849 191.477 419.125C191.472 418.98 191.464 418.836 191.459 418.692C191.257 419.754 191.032 420.772 190.786 421.719C189.434 427.948 186.518 433.462 182.991 438.027C182.983 438.037 182.975 438.048 182.967 438.058C173.239 450.585 158.954 456.678 145.652 458.016C132.615 459.327 118.028 456.301 107.328 447.254C107.276 447.211 107.226 447.166 107.175 447.122C97.4095 438.669 91.7647 427.476 92.4647 414.141C93.6336 391.878 110.829 374.415 132.795 360.927C132.804 358.183 132.69 354.404 132.295 349.659C132.29 349.601 132.285 349.542 132.28 349.484C127.635 349.181 123.664 348.887 120.372 348.601C117.147 348.321 114.394 348.036 112.226 347.739C111.157 347.593 110.024 347.415 108.951 347.195C108.397 347.08 106.062 346.626 103.668 345.448C101.69 344.474 99.9149 343.132 98.4395 341.493C96.7525 339.619 93.6898 335.521 93.4641 329.458C93.2134 322.719 96.5653 317.879 99.3388 315.257C101.835 312.897 104.492 311.639 106.008 311.003C107.504 310.377 108.993 309.913 110.319 309.557C114.057 308.424 117.689 308.438 119.296 308.443C121.678 308.451 124.541 308.607 127.288 308.751C128.519 308.815 129.844 308.819 131.315 308.781C131.34 308.5 131.361 308.224 131.386 307.954C131.692 304.625 132.179 299.768 133.487 296.118L133.81 295.284C133.925 295.008 134.046 294.735 134.175 294.465C137.448 287.642 143.448 284.766 147.551 283.74ZM151.695 386.567C152.666 386.618 152.641 391.73 152.118 401.687C151.315 416.987 148.645 426.101 143.622 429.004C141.373 430.103 139.25 428.774 137.742 425.042C134.673 418.549 133.151 410.432 133.661 400.718C144.114 391.769 149.956 387.206 151.695 386.567ZM238.961 320.037C237.261 319.948 235.268 320.817 232.469 323.105L231.978 323.522C227.016 327.928 225.407 335.268 229.927 339.044C232.267 340.872 233.354 343.365 233.482 345.563C232.816 353.679 245.588 362.027 254.948 359.737L255.391 359.62C259.465 358.417 265.828 348.423 266.767 341.629L266.842 340.982C266.769 338.01 265.214 334.746 262.555 331.612L262.008 330.988C255.578 323.589 242.361 320.216 238.961 320.037ZM214.315 347.447C214.236 347.495 214.154 347.539 214.074 347.585C214.26 347.684 214.446 347.784 214.631 347.884C214.525 347.738 214.417 347.594 214.315 347.447ZM109.747 415.73C109.572 422.725 112.427 428.743 118.52 434.017C130.915 444.496 155.941 443.604 168.678 428.173L169.275 427.428C171.626 424.386 173.263 421.061 173.927 417.687C174.821 414.568 175.703 407.064 176.801 395.433L178.842 370.456L188.785 366.595C190.535 365.713 191.277 365.509 192.491 365.573C193.705 365.636 194.626 366.658 194.09 367.604C194.064 368.09 195.867 370.863 199.497 375.924C203.166 380.257 205.353 384.999 206.287 390.405C208.666 400.758 209.963 436.382 208.226 446.276L208.068 447.21C207.203 451.787 205.162 455.019 202.55 456.936C199.266 459.199 197.733 460.581 197.721 460.824C197.621 462.767 209.62 466.074 213.301 465.537C223.254 463.183 242.222 441.951 245.151 432.12L245.279 431.66C247.731 422.048 244.865 402.415 240.927 393.929C232.744 378.157 203.152 357.366 186.88 356.511L177.894 356.039L177.152 346.99C175.769 331.575 175.245 332.277 189.318 333.259C196.348 333.872 200.732 333.86 202.688 333.719C206.88 332.721 211.519 327.849 209.742 324.59C208.219 321.101 193.508 318.381 189.214 321.321C187.169 323.162 184.46 323.751 180.574 323.547C176.931 323.356 175.268 322.537 175.613 320.607C175.739 318.178 171.38 313.078 162.573 304.581C158.176 300.21 151.172 299.112 149.805 301.963L149.646 302.473C148.866 305.342 148.255 312.916 147.622 324.984C139.058 325.752 132.207 326.366 126.379 326.06L122.413 325.862C118.848 325.709 116.473 325.723 115.169 326.202C111.219 327.213 109.942 328.362 111.322 329.896C112.985 330.713 125.345 331.85 148.658 333.074L149.568 348.22C150.464 358.982 150.107 365.783 149.749 367.956C149.391 370.129 146.81 372.916 142.043 375.588C121.159 388.373 110.476 401.692 109.774 415.05L109.747 415.73Z" fill="#FFFDE5"/>
</g>
<g filter="url(#filter1_d_517_407)">
<path d="M824.937 249.315V174.274C824.937 124.814 825.18 99.4754 825.424 98.0135C826.154 96.7953 828.346 96.7953 832.242 97.7699C840.277 99.9627 845.878 103.861 848.8 106.785C850.261 108.003 851.478 109.952 852.452 112.632C855.131 120.916 855.861 152.833 853.183 208.627L851.478 246.879L845.634 249.559C841.982 251.508 839.79 251.752 833.946 250.777L824.937 249.315ZM911.136 118.967C912.841 118.236 913.571 117.749 914.302 117.992C915.276 118.236 923.311 123.352 924.285 131.149C924.772 134.804 923.555 138.458 920.876 141.625L917.224 146.255L912.354 141.625C907.484 136.996 907.484 136.996 908.701 127.251C909.432 122.378 910.162 119.454 911.136 118.967ZM892.386 146.255C888.247 141.869 887.516 140.164 887.516 134.073C887.273 127.982 888.247 126.276 891.899 125.545C892.386 125.301 894.091 126.52 896.769 128.956C902.127 134.316 902.614 142.356 899.692 146.742C897.013 150.884 897.013 150.397 892.386 146.255ZM933.538 204.242H922.337C910.649 204.242 911.136 204.729 901.64 194.252C897.013 189.379 892.143 185.481 887.516 183.532C878.02 179.39 865.845 167.208 865.845 162.091C865.845 159.899 866.575 158.68 869.01 158.437C886.055 158.437 917.467 171.837 928.425 184.263C933.538 190.11 934.512 192.79 934.025 197.907L933.538 204.242Z" fill="#6D4C41"/>
<path d="M827.178 79.7425C830.295 79.6583 833.279 80.2062 835.53 80.7327L836.449 80.9545L836.804 81.0493C847.435 83.9501 855.494 89.1584 860.56 94.051C864.567 97.6358 866.954 102.061 868.443 105.91L868.744 106.712L868.946 107.3C870.288 111.453 870.939 116.761 871.351 121.894C871.386 122.328 871.415 122.77 871.448 123.22C871.819 122.068 872.292 120.905 872.891 119.76C876.884 112.133 883.722 109.615 887.836 108.69C890.764 107.974 893.261 108.163 894.707 108.38C895.519 108.501 896.261 108.67 896.919 108.854C898.263 107.089 900.335 104.99 903.381 103.466L903.839 103.244C903.993 103.173 904.149 103.105 904.305 103.038C904.53 102.941 904.697 102.865 905.1 102.682C905.363 102.563 906.136 102.209 906.995 101.887C908.657 101.263 913.524 99.5933 919.433 101.436C919.461 101.445 919.49 101.454 919.519 101.463C919.608 101.492 919.697 101.52 919.786 101.55L919.783 101.555C921.818 102.231 923.303 103.108 923.517 103.229C924.393 103.725 925.264 104.286 926.095 104.869C927.76 106.038 929.701 107.607 931.635 109.568C935.243 113.226 940.284 119.75 941.465 128.86H941.467C941.468 128.867 941.467 128.874 941.468 128.88C941.473 128.92 941.48 128.96 941.485 129H941.482C942.643 138.042 939.506 146.265 934.403 152.465L930.831 156.993C929.675 158.458 928.3 159.709 926.774 160.717C932.046 164.102 936.881 167.877 940.657 171.95L941.426 172.799L941.473 172.854C944.276 176.059 947.439 180.006 949.404 184.884C951.586 190.302 951.665 195.21 951.308 199.236L950.821 205.57C950.126 214.601 942.595 221.575 933.538 221.575H918.371C916.988 221.564 915.594 221.533 914.339 221.448C911.408 221.25 907.723 220.711 903.792 218.863C900.03 217.094 897.236 214.68 895.171 212.678C893.253 210.818 891.124 208.461 888.977 206.092C885.115 202.042 882.225 200.111 880.788 199.505C880.721 199.477 880.653 199.45 880.587 199.421C877.359 198.013 874.171 196.144 871.173 194.058C870.978 198.963 870.753 204.076 870.498 209.398L870.5 209.399L868.795 247.651C868.506 254.142 864.611 259.926 858.705 262.635L853.21 265.152C850.358 266.623 846.861 268.037 842.428 268.504C838.238 268.945 834.293 268.409 831.095 267.876V267.874L822.161 266.425C813.769 265.063 807.604 257.816 807.604 249.315V174.274C807.604 149.522 807.664 130.777 807.756 118.02C807.802 111.648 807.856 106.733 807.915 103.297C807.944 101.587 807.974 100.183 808.008 99.1241C808.019 98.7886 808.058 96.7801 808.326 95.1665C808.683 93.0223 809.441 90.964 810.559 89.0998C815.506 80.8498 823.911 79.8309 827.178 79.7425ZM869.01 158.437C866.576 158.68 865.845 159.899 865.845 162.091C865.845 167.208 878.02 179.391 887.516 183.533C892.143 185.482 897.014 189.38 901.64 194.253C911.137 204.729 910.65 204.242 922.337 204.242H933.538L934.025 197.907C934.482 193.111 933.655 190.455 929.337 185.324L928.424 184.264C917.467 171.838 886.055 158.437 869.01 158.437ZM891.901 125.546C888.248 126.277 887.273 127.982 887.516 134.073L887.527 135.165C887.527 135.21 887.529 135.254 887.53 135.297C886.533 136.017 885.862 136.681 885.511 137.051C885.252 137.323 885.036 137.58 884.881 137.772C884.447 138.569 884.274 139.211 884.204 139.573C884.111 140.051 884.134 140.35 884.151 140.484C884.169 140.613 884.206 140.744 884.268 140.871C884.373 140.931 884.496 141.004 884.639 141.08L887.708 138.012C887.742 138.28 887.781 138.537 887.826 138.786L885.404 141.449C885.452 141.47 885.5 141.495 885.55 141.516C886.171 141.788 887.521 142.328 889.37 142.628C890.085 143.717 891.059 144.85 892.386 146.256C897.013 150.398 897.014 150.884 899.692 146.742C902.614 142.356 902.127 134.316 896.771 128.956C894.093 126.521 892.388 125.303 891.901 125.546ZM914.302 117.993C913.571 117.749 912.841 118.237 911.137 118.968L910.957 119.088C910.072 119.829 909.386 122.684 908.701 127.252C907.483 136.997 907.484 136.997 912.354 141.626L917.224 146.256L920.876 141.626C923.555 138.459 924.772 134.805 924.286 131.15C923.312 123.354 915.276 118.236 914.302 117.993ZM824.937 249.315L833.947 250.778C839.791 251.752 841.982 251.508 845.634 249.559L851.479 246.879L853.183 208.627C855.862 152.833 855.13 120.916 852.452 112.632C851.478 109.953 850.261 108.003 848.801 106.785C845.97 103.953 840.624 100.206 832.987 97.9815L832.243 97.7699C828.347 96.7955 826.155 96.796 825.424 98.0136L825.379 98.5688C825.151 102.741 824.937 127.909 824.937 174.274V249.315Z" fill="#FFFDE5"/>
<path d="M661.061 144.407C660.173 146.182 657.955 146.848 654.183 146.848C650.411 146.848 641.093 140.414 625.34 128.877C623.121 127.324 621.568 124.439 620.903 120.446L619.35 114.233H641.536L648.414 121.999C652.408 126.658 655.736 131.095 658.398 135.533C661.061 139.97 661.948 142.854 661.061 144.407ZM750.473 149.954C750.695 150.62 749.808 152.395 748.255 154.835C745.148 159.938 741.155 167.038 734.721 175.247C731.393 179.241 727.621 184.343 722.74 190.778C713.421 202.98 696.116 216.07 661.283 230.492C649.967 235.151 642.202 234.929 624.453 225.833C613.581 220.064 608.256 216.292 609.588 213.63C609.588 213.408 609.588 212.964 609.809 212.742C610.031 212.521 614.247 212.077 622.012 210.968C637.987 208.305 662.614 199.652 672.154 195.659C681.473 191.665 691.235 185.231 711.203 171.253C720.965 164.375 729.396 156.166 736.052 146.404C739.602 141.523 739.38 141.523 745.592 144.407C748.698 146.182 750.473 147.957 750.473 149.954Z" fill="#6D4C41"/>
<path d="M736.192 125.546C741.675 124.371 746.168 125.897 747.888 126.521C748.79 126.848 749.747 127.254 750.625 127.645L752.892 128.686L753.549 129.008C753.766 129.12 753.98 129.237 754.192 129.358C756.455 130.652 759.442 132.599 762.024 135.438C764.541 138.207 767.329 142.598 767.751 148.435C768.058 151.632 767.449 154.097 767.231 154.95C766.781 156.711 766.157 158.159 765.738 159.058C764.931 160.787 763.932 162.467 763.062 163.847L760.58 167.976C757.74 172.686 753.783 179.026 748.364 185.94C748.257 186.077 748.148 186.21 748.037 186.343C745.045 189.934 741.667 194.508 736.549 201.254C736.538 201.269 736.528 201.284 736.517 201.298C724.513 217.017 703.961 231.583 667.913 246.507C667.903 246.512 667.892 246.515 667.882 246.519C660.662 249.492 652.857 251.587 643.395 250.551C634.629 249.592 625.98 246.093 616.547 241.258C616.474 241.221 616.401 241.183 616.329 241.145C610.891 238.259 605.576 235.236 601.689 232.16C599.853 230.707 596.991 228.22 594.886 224.646C592.882 221.243 591.099 215.827 592.609 209.84C592.948 208.076 593.992 204.047 597.553 200.486C599.47 198.57 601.374 197.576 602.073 197.226C602.976 196.773 603.742 196.489 604.18 196.335C605.058 196.029 605.791 195.85 606.125 195.772C606.855 195.601 607.528 195.487 607.904 195.425C608.735 195.288 609.764 195.147 610.762 195.012C612.873 194.726 615.662 194.362 619.355 193.835C633.379 191.46 656.287 183.495 665.343 179.718C672.69 176.567 680.929 171.286 701.22 157.083L702.757 155.979C710.357 150.399 716.721 143.988 721.731 136.64L722.034 136.21C722.584 135.453 723.928 133.541 725.265 132.051C726.771 130.373 730.315 126.806 736.192 125.546ZM745.593 144.408C739.381 141.524 739.602 141.523 736.053 146.404L735.731 146.866C729.125 156.425 720.811 164.486 711.204 171.254L704.174 176.151C688.801 186.801 680.308 192.164 672.155 195.658C662.614 199.652 637.987 208.305 622.013 210.967L616.86 211.682C612.391 212.284 609.978 212.576 609.81 212.743C609.589 212.965 609.589 213.408 609.589 213.63C608.257 216.292 613.581 220.064 624.452 225.833C641.647 234.645 649.473 235.129 660.233 230.914L661.282 230.493C695.027 216.522 712.323 203.8 721.842 191.924L722.74 190.778C727.01 185.149 730.433 180.538 733.451 176.798L734.721 175.248C741.155 167.039 745.149 159.938 748.256 154.835C749.808 152.395 750.694 150.621 750.473 149.955C750.473 148.083 748.914 146.405 746.16 144.74L745.593 144.408ZM641.537 96.9004C646.499 96.9004 651.223 99.0276 654.513 102.742L661.391 110.506L661.575 110.718C665.99 115.868 669.956 121.104 673.262 126.614C674.878 129.309 676.604 132.563 677.654 136.043C678.526 138.929 680.063 145.644 676.373 152.526C673.393 158.209 668.526 161.257 664.305 162.698C660.499 163.998 656.769 164.182 654.183 164.182C649.17 164.182 644.934 162.302 642.866 161.32C640.264 160.084 637.555 158.479 634.917 156.792C629.617 153.403 622.926 148.594 615.098 142.861V142.858C608.19 137.871 605.157 130.436 603.964 124.15L602.535 118.438C601.24 113.26 602.404 107.773 605.689 103.566C608.973 99.3595 614.013 96.9004 619.35 96.9004H641.537ZM619.35 114.234L620.903 120.446C621.568 124.44 623.122 127.324 625.341 128.877C640.602 140.054 649.824 146.441 653.814 146.829L654.183 146.849C657.954 146.849 660.173 146.183 661.061 144.408C661.893 142.952 661.165 140.326 658.877 136.347L658.398 135.533C656.068 131.651 653.23 127.768 649.882 123.737L648.414 122L641.537 114.234H619.35Z" fill="#FFFDE5"/>
<path d="M495.644 72.9665H524.487C531.808 72.079 534.249 72.079 538.908 68.5291C541.349 66.7542 543.346 65.8667 545.564 65.8667C549.78 65.8667 559.098 73.6321 560.651 81.3974C561.982 89.1628 559.542 90.7158 551.333 87.166C546.452 84.9473 534.027 83.1723 514.281 82.5068C494.535 81.6193 480.335 80.7318 471.682 78.735C463.251 76.7382 457.261 74.2977 453.267 70.9696L448.608 66.7542L453.489 68.3072C466.136 71.1915 480.113 72.9665 495.644 72.9665ZM445.28 122.665C440.843 120.668 438.402 119.115 438.402 119.115C438.402 118.227 525.596 119.337 538.464 120.668C551.333 121.777 560.429 125.993 564.423 130.652C566.42 132.871 567.751 135.311 567.751 138.195C567.751 143.964 537.577 188.337 526.04 198.321C514.503 208.084 501.856 214.74 491.429 216.958C481.001 217.846 470.573 213.63 468.133 208.527C465.692 203.203 466.136 202.537 469.464 200.54C488.988 186.341 509.4 163.932 520.937 142.411L528.037 129.321L491.872 128.211C476.342 127.99 465.692 127.324 460.589 126.658C455.042 125.993 449.939 124.883 445.28 122.665Z" fill="#6D4C41"/>
<path d="M567.751 138.194C567.751 135.311 566.42 132.87 564.423 130.652C560.43 125.993 551.332 121.777 538.464 120.668C525.595 119.337 438.434 118.228 438.403 119.114C438.403 119.114 440.843 120.667 445.28 122.664C449.939 124.882 455.043 125.993 460.589 126.659C465.692 127.324 476.342 127.989 491.872 128.211L528.037 129.321L520.938 142.411C509.401 163.932 488.988 186.341 469.464 200.54C466.136 202.537 465.693 203.202 468.134 208.527C470.574 213.63 481.001 217.845 491.429 216.958C501.531 214.809 513.715 208.495 524.956 199.227L526.04 198.321C537.396 188.494 566.812 145.344 567.729 138.494L567.751 138.194ZM545.565 65.8666C543.346 65.8666 541.35 66.7544 538.909 68.5292C534.25 72.0791 531.809 72.0784 524.487 72.9658H495.645C480.115 72.9658 466.136 71.1917 453.49 68.3075L448.608 66.7536L453.268 70.9701C457.262 74.2979 463.253 76.7379 471.683 78.7346C480.336 80.7313 494.536 81.6185 514.282 82.5059C534.028 83.1716 546.453 84.9473 551.334 87.166C559.286 90.6047 561.825 89.2544 560.766 82.1065L560.652 81.3972C559.099 73.6321 549.781 65.867 545.565 65.8666ZM585.085 138.194C585.085 141.581 584.143 144.362 583.783 145.399C583.276 146.858 582.662 148.258 582.09 149.461C580.935 151.894 579.43 154.626 577.806 157.393C574.523 162.987 570.147 169.751 565.503 176.501C560.848 183.269 555.772 190.242 551.044 196.248C546.561 201.943 541.631 207.751 537.382 211.428C537.334 211.47 537.286 211.512 537.237 211.553C524.207 222.579 509.03 230.935 495.036 233.912C494.331 234.062 493.618 234.168 492.9 234.229C485.046 234.897 477.254 233.677 470.7 231.219C465.031 229.093 456.623 224.634 452.496 216.005C452.456 215.92 452.415 215.835 452.376 215.75C451.712 214.3 450.844 212.327 450.225 210.238C449.625 208.214 448.718 204.374 449.656 199.802C450.714 194.645 453.546 191.139 455.882 189.027C457.313 187.732 458.833 186.727 459.799 186.129C473.736 175.882 488.194 160.925 498.589 145.758L491.464 145.539C476.014 145.315 464.676 144.654 458.524 143.867C458.482 143.862 458.439 143.857 458.397 143.852C458.381 143.849 458.364 143.849 458.348 143.846V143.845C452.038 143.078 445.047 141.682 438.169 138.469L438.167 138.472C435.502 137.272 433.377 136.179 431.852 135.344C431.089 134.926 430.473 134.571 430.012 134.298C429.781 134.161 429.589 134.045 429.436 133.951C429.36 133.904 429.293 133.863 429.237 133.827C429.208 133.81 429.182 133.793 429.159 133.778C429.147 133.771 429.137 133.763 429.127 133.756C429.122 133.753 429.116 133.751 429.111 133.748C429.109 133.746 429.105 133.744 429.103 133.743L429.1 133.741C429.098 133.739 429.151 133.652 438.403 119.114L429.096 133.738C424.097 130.556 421.069 125.04 421.069 119.114C421.07 109.608 428.137 105.09 429.147 104.45C431.088 103.222 432.819 102.677 433.372 102.507C434.728 102.09 435.861 101.928 436.175 101.882C437.056 101.755 437.87 101.7 438.299 101.673C439.308 101.609 440.54 101.569 441.8 101.542C444.399 101.486 448.004 101.463 452.227 101.463C460.713 101.463 472.102 101.561 483.854 101.728C506.516 102.051 532.168 102.647 539.952 103.399H539.954C540.008 103.404 540.063 103.41 540.118 103.414C540.162 103.419 540.205 103.422 540.248 103.426H540.246C542.878 103.662 545.494 104.014 548.062 104.489C546.767 104.038 545.552 103.551 544.453 103.076C544.355 103.033 544.257 102.99 544.16 102.945C544.246 102.985 542.145 102.222 536.147 101.442C530.684 100.732 523.227 100.152 513.698 99.8309C513.633 99.8287 513.568 99.8253 513.503 99.8224C494.329 98.9606 478.321 98.056 467.785 95.6245C467.753 95.617 467.72 95.6101 467.688 95.6025C458.431 93.41 449.279 90.209 442.171 84.285C441.99 84.1347 441.813 83.9804 441.639 83.8229L436.979 79.608C430.931 74.1358 429.517 65.1868 433.582 58.1156C437.647 51.0445 446.092 47.7632 453.864 50.2361L457.999 51.553C469.256 54.0726 481.728 55.6324 495.645 55.6324H523.47C524.948 55.4573 525.879 55.3525 526.849 55.2211C527.405 55.1457 527.761 55.087 527.979 55.0468C528.083 54.9749 528.225 54.8787 528.404 54.7421L528.714 54.5102C532.477 51.7739 538.074 48.5332 545.565 48.5332L546.594 48.5586C551.68 48.8099 555.815 50.86 558.062 52.1404C560.962 53.7927 563.691 55.9057 566.076 58.1817C570.337 62.2497 575.564 68.8392 577.474 77.1841L577.649 77.9983L577.735 78.4688C578.177 81.0454 578.621 84.6943 578.068 88.5388C577.482 92.6177 575.374 99.1022 568.731 103.238C563.669 106.391 558.522 106.518 555.185 106.167C564.075 108.741 571.948 112.973 577.305 119.057H577.307C577.359 119.115 577.41 119.175 577.462 119.234C577.502 119.281 577.545 119.325 577.584 119.372H577.583C581.11 123.382 585.084 129.676 585.085 138.194Z" fill="#FFFDE5"/>
<path d="M343.381 149.095C351.146 150.648 347.374 152.866 355.362 154.42C356.062 156 356.693 155.751 356.693 161.963V225.639C356.693 228.523 353.365 233.182 350.48 233.182C339.165 234.514 339.387 234.292 334.728 234.292C332.953 234.292 331.178 228.301 331.178 226.748V158.635C311.876 175.053 291.02 176.384 265.062 166.179C271.718 163.072 277.93 161.741 281.258 158.635C304.11 148.207 312.319 143.548 323.856 131.567C338.056 118.033 342.271 101.171 351.812 87.4157C353.808 84.7533 356.915 83.2002 360.021 83.2002C371.336 86.0845 370.227 89.1906 383.095 91.853C373.776 118.477 360.464 130.014 343.381 149.095Z" fill="#6D4C41"/>
<path d="M356.692 225.638V161.964C356.692 155.751 356.061 156 355.36 154.419C347.374 152.866 351.144 150.647 343.379 149.094C360.463 130.014 373.775 118.477 383.094 91.8532C370.226 89.1909 371.335 86.0843 360.02 83.2001C356.914 83.2001 353.807 84.7527 351.811 87.4149C342.27 101.171 338.055 118.034 323.855 131.568L322.784 132.67C311.792 143.845 303.395 148.532 281.257 158.634C277.929 161.74 271.717 163.072 265.061 166.179C291.019 176.384 311.874 175.052 331.176 158.634V226.749C331.177 228.303 332.953 234.292 334.728 234.292C339.386 234.292 339.165 234.514 350.48 233.183C353.274 233.182 356.484 228.81 356.682 225.914L356.692 225.638ZM374.026 225.638C374.026 232.469 370.754 238.057 368.323 241.167C366.87 243.026 364.892 245.079 362.331 246.799C360.137 248.272 356.606 250.093 352.059 250.449C346.719 251.074 343.561 251.401 341.096 251.542C338.496 251.691 336.397 251.625 334.728 251.625C329.476 251.625 325.636 249.405 323.542 247.806C321.451 246.209 320.076 244.473 319.29 243.366C317.715 241.147 316.724 238.889 316.157 237.449C315.525 235.843 315.024 234.222 314.662 232.768C314.411 231.759 313.843 229.373 313.843 226.749V187.466C310.125 188.505 306.304 189.234 302.375 189.634C287.883 191.113 273.31 188.047 258.718 182.31C252.27 179.775 247.951 173.641 247.736 166.715C247.521 159.789 251.452 153.402 257.731 150.472C261.668 148.635 266.159 147.03 268.025 146.291C269.091 145.869 269.692 145.597 270.039 145.422C271.255 144.39 272.608 143.53 274.061 142.866C296.359 132.692 302.147 129.123 311.37 119.544L311.896 119.02C316.975 114.179 320.538 108.526 324.248 101.49C327.587 95.1576 332 85.5672 337.568 77.538L337.944 77.0149C343.092 70.1508 351.258 65.8667 360.02 65.8667L360.562 65.8752C361.823 65.9146 363.077 66.0913 364.301 66.4033C372.095 68.3899 376.181 70.7347 379.156 72.3278C380.719 73.1645 382.09 73.9444 386.606 74.8787C391.499 75.8911 395.718 78.9666 398.179 83.3152C400.64 87.6637 401.104 92.8635 399.454 97.5797C391.831 119.359 381.371 132.963 370.192 145.45C370.484 145.932 370.754 146.43 370.999 146.944C371.042 147.024 371.099 147.122 371.163 147.244C371.741 148.329 372.471 149.883 373.027 151.951C373.918 155.264 374.026 158.769 374.026 161.964V225.638Z" fill="#FFFDE5"/>
<path d="M101.597 147.435L111.214 146.224C125.639 144.407 144.04 152.835 145.312 162.933C145.584 165.097 146.186 165.998 146.938 166.147L147.599 165.576C149.28 163.41 200.722 118.099 184.974 119.106C184.762 117.423 155.881 118.862 129.975 120.659C104.099 122.697 88.2907 123.222 83.3916 123.107C72.9024 123.207 64.3311 117.204 66.1031 115.759C66.7335 114.947 68.4164 114.735 71.572 114.582C74.7277 114.429 88.5523 113.665 113.676 111.477C138.56 109.321 153.076 108.225 156.322 108.793C159.569 109.361 167.834 109.053 181.268 109.071C194.463 109.119 202.968 108.78 207.176 109.227C215.322 109.911 225.665 114.47 226.331 119.759C226.997 125.048 191.393 170.073 183.914 174.679C181.901 176.153 176.764 178.021 169.252 180.433C161.741 182.844 157.294 184.381 155.702 185.314C153.899 186.518 152.457 186.7 151.615 185.829C148.997 182.495 146.835 184.721 145.4 192.717C141.546 218.358 139.176 222.808 124.887 241.215L110.987 258.841C110.236 258.691 108.432 257.941 105.846 256.802C100.194 254.583 96.8848 251.58 98.443 246.499C99.2817 243.463 100.872 240.576 103.004 238.11C105.525 234.862 106.962 228.819 107.315 219.983C108.531 202.489 112.43 161.701 113.506 154.727C110.89 153.347 106.68 150.946 101.597 147.435Z" fill="#6D4C41"/>
<path d="M226.331 119.759C225.664 114.47 215.321 109.911 207.176 109.227C202.968 108.78 194.462 109.119 181.268 109.071C167.833 109.053 159.567 109.362 156.321 108.794C153.074 108.226 138.558 109.321 113.676 111.477C94.8325 113.118 82.345 113.958 75.9478 114.34L71.5715 114.583C68.4159 114.736 66.732 114.947 66.1016 115.759C64.3308 117.204 72.9015 123.207 83.39 123.107C88.2891 123.223 104.098 122.697 129.973 120.659C155.878 118.862 184.757 117.423 184.973 119.105C200.72 118.099 149.285 163.405 147.598 165.575L146.937 166.147C146.185 165.997 145.583 165.096 145.31 162.933C144.038 152.835 125.638 144.407 111.213 146.223L101.597 147.434C106.679 150.946 110.888 153.348 113.504 154.728C112.429 161.704 108.529 202.489 107.313 219.982C106.96 228.819 105.523 234.861 103.002 238.11C100.87 240.576 99.2806 243.463 98.4419 246.499C96.8838 251.58 100.193 254.583 105.845 256.802C108.108 257.799 109.771 258.497 110.655 258.757L110.987 258.841L124.886 241.216C139.175 222.809 141.545 218.357 145.398 192.717C145.465 192.344 145.535 191.985 145.605 191.638L151.613 185.83C152.455 186.7 153.899 186.519 155.701 185.315C157.094 184.498 160.672 183.219 166.578 181.297L169.251 180.433C176.763 178.022 181.9 176.153 183.912 174.678C191.333 170.109 226.443 125.746 226.338 119.889L226.331 119.759ZM145.605 191.638C145.698 191.176 145.796 190.736 145.895 190.318L151.613 185.83L145.605 191.638ZM145.383 137.025C146.791 137.883 148.175 138.822 149.512 139.846C150.615 138.787 151.744 137.7 152.878 136.593C150.432 136.727 147.924 136.871 145.383 137.025ZM243.528 117.593C244.122 122.311 242.684 126.158 242.334 127.12C241.726 128.791 240.974 130.334 240.326 131.558C239.002 134.058 237.267 136.826 235.452 139.546C231.766 145.069 226.862 151.707 221.839 158.142C216.797 164.6 211.438 171.108 206.773 176.382C204.45 179.008 202.185 181.459 200.145 183.491C198.585 185.046 196.207 187.332 193.611 189.047C190.653 191.083 187.18 192.492 184.872 193.38C181.924 194.515 178.382 195.706 174.549 196.936C170.818 198.134 168.051 199.05 166.078 199.753C165.126 200.093 164.488 200.338 164.088 200.502C163.336 200.948 162.474 201.412 161.508 201.84C159.905 211.488 158.128 219.238 154.966 226.555C151.112 235.471 145.594 242.806 138.577 251.845C138.55 251.88 138.523 251.915 138.496 251.949L124.597 269.573C120.561 274.691 113.995 277.112 107.603 275.84C105.411 275.404 103.331 274.553 102.645 274.277C101.542 273.835 100.286 273.293 99.0124 272.732C95.33 271.244 89.963 268.594 85.9379 263.594C80.7056 257.096 79.5443 249.003 81.8705 241.417C83.3159 236.441 85.7668 231.898 88.8645 228.012C88.928 227.815 89.0145 227.527 89.1085 227.132C89.4847 225.55 89.8457 223.02 89.9944 219.292L90.0221 218.78C90.9251 205.791 93.3228 179.676 94.9899 163.872C93.947 163.19 92.8617 162.467 91.7437 161.694C85.8315 157.609 83.0524 150.3 84.7583 143.319C85.0016 142.324 85.3314 141.365 85.7344 140.449C84.8006 140.456 83.992 140.451 83.3105 140.439C74.9952 140.473 67.5562 138.181 62.1961 135.414C59.6415 134.095 56.5235 132.141 53.9492 129.401C52.8373 128.218 50.4187 125.433 49.2246 121.201C48.5654 118.866 48.1272 115.518 49.1112 111.726C49.9111 108.644 51.4575 106.037 53.3773 103.984C57.6589 99.2922 63.0189 98.2126 64.5837 97.9087C66.8555 97.4674 69.2278 97.3423 70.7304 97.2694C73.634 97.1284 87.2353 96.381 112.171 94.2102L112.178 94.2094C124.613 93.1315 134.626 92.3029 141.969 91.8173C145.629 91.5753 148.793 91.4066 151.344 91.3413C153.348 91.29 156.542 91.2343 159.309 91.7184C158.901 91.647 159.051 91.7071 160.315 91.7521C161.43 91.7918 162.932 91.8074 164.957 91.8056C168.51 91.8023 174.863 91.7295 181.289 91.738C181.303 91.738 181.317 91.7379 181.33 91.7379C187.829 91.7615 193.029 91.6889 197.5 91.6653C201.394 91.6447 205.43 91.6504 208.623 91.9569L208.624 91.955C208.751 91.9657 208.878 91.9788 209.006 91.9906L209.004 91.9925C215.206 92.5663 221.86 94.4745 227.451 97.3347C230.323 98.8039 233.571 100.856 236.413 103.677C239.15 106.394 242.702 111.035 243.528 117.593Z" fill="#FFFDE5"/>
</g>
<defs>
<filter id="filter0_d_517_407" x="77.4062" y="272.053" width="828.382" height="235.873" filterUnits="userSpaceOnUse" color-interpolation-filters="sRGB">
<feFlood flood-opacity="0" result="BackgroundImageFix"/>
<feColorMatrix in="SourceAlpha" type="matrix" values="0 0 0 0 0 0 0 0 0 0 0 0 0 0 0 0 0 0 127 0" result="hardAlpha"/>
<feOffset dy="4"/>
<feGaussianBlur stdDeviation="7.5"/>
<feComposite in2="hardAlpha" operator="out"/>
<feColorMatrix type="matrix" values="0 0 0 0 0.0561626 0 0 0 0 0.590201 0 0 0 0 0.198573 0 0 0 0.33 0"/>
<feBlend mode="normal" in2="BackgroundImageFix" result="effect1_dropShadow_517_407"/>
<feBlend mode="normal" in="SourceGraphic" in2="effect1_dropShadow_517_407" result="shape"/>
</filter>
<filter id="filter1_d_517_407" x="33.5352" y="37.5332" width="932.934" height="257.641" filterUnits="userSpaceOnUse" color-interpolation-filters="sRGB">
<feFlood flood-opacity="0" result="BackgroundImageFix"/>
<feColorMatrix in="SourceAlpha" type="matrix" values="0 0 0 0 0 0 0 0 0 0 0 0 0 0 0 0 0 0 127 0" result="hardAlpha"/>
<feOffset dy="4"/>
<feGaussianBlur stdDeviation="7.5"/>
<feComposite in2="hardAlpha" operator="out"/>
<feColorMatrix type="matrix" values="0 0 0 0 0.0561626 0 0 0 0 0.590201 0 0 0 0 0.198573 0 0 0 0.33 0"/>
<feBlend mode="normal" in2="BackgroundImageFix" result="effect1_dropShadow_517_407"/>
<feBlend mode="normal" in="SourceGraphic" in2="effect1_dropShadow_517_407" result="shape"/>
</filter>
</defs>
</svg>
